<svg width="18" height="16" viewBox="0 0 18 16" fill="none" xmlns="http://www.w3.org/2000/svg">
<path id="icon" d="M3.68182 16C3.04364 16 2.48727 15.6211 2.21727 15.0737L0.0818182 7.10737L0 6.73684C0 6.5135 0.086201 6.29931 0.23964 6.14138C0.393079 5.98346 0.601187 5.89474 0.818182 5.89474H4.56545L8.32909 0.362105C8.47636 0.143158 8.72182 0 9 0C9.27818 0 9.53182 0.143158 9.67909 0.370526L13.4345 5.89474H17.1818C17.3988 5.89474 17.6069 5.98346 17.7604 6.14138C17.9138 6.29931 18 6.5135 18 6.73684L17.9673 6.98105L15.7827 15.0737C15.5127 15.6211 14.9564 16 14.3182 16H3.68182ZM9 2.30737L6.54545 5.89474H11.4545L9 2.30737ZM9 9.26316C8.56601 9.26316 8.14979 9.4406 7.84292 9.75645C7.53604 10.0723 7.36364 10.5007 7.36364 10.9474C7.36364 11.394 7.53604 11.8224 7.84292 12.1383C8.14979 12.4541 8.56601 12.6316 9 12.6316C9.43399 12.6316 9.85021 12.4541 10.1571 12.1383C10.464 11.8224 10.6364 11.394 10.6364 10.9474C10.6364 10.5007 10.464 10.0723 10.1571 9.75645C9.85021 9.4406 9.43399 9.26316 9 9.26316Z" fill="#232B34"/>
</svg>
